<svg width="312" height="312" viewBox="0 0 312 312" fill="none" xmlns="http://www.w3.org/2000/svg">
<circle cx="156" cy="156" r="156" fill="white"/>
<path fill-rule="evenodd" clip-rule="evenodd" d="M187.221 169.42C185.108 168.817 182.877 168.758 180.735 169.251L127.5 181.5H113C112.448 181.5 112 181.948 112 182.5V183C112 184.657 113.416 186.188 114.629 187.316C115.502 188.128 116.25 189.252 116.5 190.5C117 193 117 204.5 117 213.5L116.888 213.737C112.287 223.45 99.459 250.533 94.5 254.5C93 256.5 92 260.5 96 260.5C99 260.5 120 235 124.5 215.5H130C130.5 220.5 130 224.5 130.5 228.5C131 230 133.5 230.571 136.5 231C140 231 146.5 230.5 146.5 230.5V240L119.5 241.5L120 249C120.833 251.333 122.2 254.7 125 255.5C127 256.071 130 256 132 255.5C136.5 254.375 141 249.333 146.5 247.5C152.5 245.5 158 243 162 242C164.716 241.321 167.308 242 168 243.5C169 245.667 172.558 249.712 176.5 250.5C179 251 180.667 249.167 181 248.5C181.5 247.833 183 245.5 182 244.5C180.351 242.851 168.167 234.167 162 230C161.5 233.667 160 239 158.5 239H154V227H164C166.5 226.167 171.7 223 172.5 217C173.5 209.5 173.606 204.803 170 203C166 201 157 205.5 156 206C155.5 206.25 155.667 199.5 156 195.5C160.5 195.5 169.3 195.1 170.5 189.5C171.7 183.9 164.833 185 161 186.5L134 196.5C133 199.5 136.472 198 145.5 198C146.5 198 146 203.5 146 208C146 210 127.5 209 127.5 209V187.5C140 185.167 166.98 178.507 176 175.5C179 174.5 178.5 196.5 179 203C180 211.5 184 230 188.5 237.5C192.881 244.801 208.482 268.5 215.5 268.5H221C223 267 224.5 242.5 224.5 233.5C224.5 225.594 217 251.833 210.5 247.5C204.5 243.5 195.5 235.5 193.5 230.5C191.561 225.653 187.5 215.5 187 210C186.636 205.997 187.167 194 187 189.5C189.167 188 193.886 183.41 194.5 178.5C195 174.5 192.5 171.167 191 170.5L187.221 169.42ZM154.5 222.5V211L163.5 208C165.5 207.333 169 207.4 167 213C165 218.6 157.833 221.667 154.5 222.5ZM147 224V215.5V215.5C146.378 214.257 145.158 213.415 143.77 213.344C141.93 213.249 139.82 213.227 139 213.5C137.8 213.9 136.833 216.333 136.5 217.5V224C136.5 225 139.5 227 142 227C144 227 146.167 225 147 224Z" fill="url(#paint0_linear_1_6)"/>
<path d="M117 213.5C117 204.5 117 193 116.5 190.5C116.25 189.252 115.502 188.128 114.629 187.316C113.416 186.188 112 184.657 112 183V182.5C112 181.948 112.448 181.5 113 181.5H127.5L180.735 169.251C182.877 168.758 185.108 168.817 187.221 169.42L191 170.5C192.5 171.167 195 174.5 194.5 178.5C193.886 183.41 189.167 188 187 189.5C187.167 194 186.636 205.997 187 210C187.5 215.5 191.561 225.653 193.5 230.5C195.5 235.5 204.5 243.5 210.5 247.5C217 251.833 224.5 225.594 224.5 233.5C224.5 242.5 223 267 221 268.5M117 213.5L116.888 213.737M117 213.5C116.963 213.578 116.926 213.657 116.888 213.737M124.5 215.5C120 235 99 260.5 96 260.5C92 260.5 93 256.5 94.5 254.5C99.459 250.533 112.287 223.45 116.888 213.737M124.5 215.5C127 215.5 128.5 215.5 130 215.5M124.5 215.5H130M130 215.5C130.5 220.5 130 224.5 130.5 228.5C131 230 133.5 230.571 136.5 231C140 231 146.5 230.5 146.5 230.5M146.5 230.5C146.5 230.5 146.5 237.5 146.5 240M146.5 230.5V240M146.5 240L119.5 241.5L120 249C120.833 251.333 122.2 254.7 125 255.5C127 256.071 130 256 132 255.5C136.5 254.375 141 249.333 146.5 247.5C152.5 245.5 158 243 162 242C164.716 241.321 167.308 242 168 243.5C169 245.667 172.558 249.712 176.5 250.5C179 251 180.667 249.167 181 248.5C181.5 247.833 183 245.5 182 244.5C180.351 242.851 168.167 234.167 162 230C161.5 233.667 160 239 158.5 239M158.5 239C157 239 156 239 154 239M158.5 239H154M154 239C154 235.5 154 231 154 227M154 239V227M154 227H164C166.5 226.167 171.7 223 172.5 217C173.5 209.5 173.606 204.803 170 203C166 201 157 205.5 156 206C155.5 206.25 155.667 199.5 156 195.5C160.5 195.5 169.3 195.1 170.5 189.5C171.7 183.9 164.833 185 161 186.5L134 196.5C133 199.5 136.472 198 145.5 198C146.5 198 146 203.5 146 208C146 210 127.5 209 127.5 209M127.5 209C127.5 209 127.5 195.5 127.5 187.5M127.5 209V187.5M127.5 187.5C140 185.167 166.98 178.507 176 175.5C179 174.5 178.5 196.5 179 203C180 211.5 184 230 188.5 237.5C192.881 244.801 208.482 268.5 215.5 268.5M215.5 268.5C217 268.5 219.5 268.5 221 268.5M215.5 268.5H221M136.5 224C136.5 225 139.5 227 142 227C144 227 146.167 225 147 224V215.5V215.5C146.378 214.257 145.158 213.415 143.77 213.344C141.93 213.249 139.82 213.227 139 213.5C137.8 213.9 136.833 216.333 136.5 217.5M136.5 224C136.5 223.2 136.5 219.333 136.5 217.5M136.5 224V217.5M154.5 211V222.5C157.833 221.667 165 218.6 167 213C169 207.4 165.5 207.333 163.5 208L154.5 211Z" stroke="#B41519" stroke-opacity="0.75"/>
<path d="M150 139V159C143.167 161.333 129.1 165.5 127.5 163.5C125.5 161 129.5 149 127.5 144.5C125.9 140.9 118 142.5 118 144.5C118 145.5 120.5 146.5 120.5 147.5C120.5 148.765 120.625 157.5 119.5 160.5C118.5 163.167 116.957 168.914 118 171C118.5 172 120 173.5 122.5 173.5H127.5C130 173.5 137.672 168.031 141.5 166.5C144 165.5 153 163 154.5 163C155.3 163 173 162.5 183 162.5C184.167 164.167 186.851 167 188.5 167C189.5 167 190.5 167 191.5 165.5C192.887 163.42 194 150.581 194 149C194 147.5 193.76 142.021 193 140.5C191.5 137.5 188.225 135.5 185 135.5C181.5 135.5 180 136.663 180 138C180 139.5 186 141.5 186.5 143.5C188 147 186.5 152.5 184.5 155.5H160V134C160 131.6 155 129.333 152.5 128.5C149.333 128.333 143 128.438 143 130.5L143 133C143.5 135 150 135.5 150 139Z" fill="url(#paint1_linear_1_6)"/>
<path d="M184.5 155.5C186.5 152.5 188 147 186.5 143.5C186 141.5 180 139.5 180 138C180 136.663 181.5 135.5 185 135.5C188.225 135.5 191.5 137.5 193 140.5C193.76 142.021 194 147.5 194 149C194 150.581 192.887 163.42 191.5 165.5C190.5 167 189.5 167 188.5 167C186.851 167 184.167 164.167 183 162.5C173 162.5 155.3 163 154.5 163C153 163 144 165.5 141.5 166.5C137.672 168.031 130 173.5 127.5 173.5H122.5C120 173.5 118.5 172 118 171C116.957 168.914 118.5 163.167 119.5 160.5C120.625 157.5 120.5 148.765 120.5 147.5C120.5 146.5 118 145.5 118 144.5C118 142.5 125.9 140.9 127.5 144.5C129.5 149 125.5 161 127.5 163.5C129.1 165.5 143.167 161.333 150 159V139C150 135.5 143.5 135 143 133M184.5 155.5C180.5 155.5 162 155.5 160 155.5M184.5 155.5H160M160 155.5C160 150.5 160 137 160 134M160 155.5V134M160 134C160 131.6 155 129.333 152.5 128.5C149.333 128.333 143 128.438 143 130.5M143 130.5C143 132 143 131.5 143 133M143 130.5L143 133" stroke="#B41519" stroke-opacity="0.75"/>
<path d="M144 19C145.667 20.3333 149.3 24.7 150.5 31.5C151.7 38.3 149.333 81.3333 148 102C137.667 104.5 117.792 108.195 116 107C114.5 106 113.5 104.5 116 98C119.135 89.8499 115.5 77 111 75.5C106.5 74 104.5 76.5 105.5 80C106.5 83.5 108 85 108 91.5C108 98 95.5 113 100.5 119C102.167 121 104.5 122 107.5 121L187 104.5C190.833 103.667 198.8 102.5 200 104.5C201.5 107 200 117 200 121C200 125 209.5 115 211.5 111C213.5 107 215 75.5 211.5 69C207.1 63.4 197.667 62.8333 193.5 63.5C191.5 63.82 192 68 199 71.5C200 77 200 80 200 95.5C194.5 95.5 166 100.5 162 100.5C160.5 95.5 161.5 36 161.5 31.5C161.5 26 155 14 144 19Z" fill="url(#paint2_linear_1_6)" stroke="#B41519" stroke-opacity="0.75"/>
<defs>
<linearGradient id="paint0_linear_1_6" x1="158.842" y1="168.5" x2="158.842" y2="268.5" gradientUnits="userSpaceOnUse">
<stop stop-color="#EF0313"/>
<stop offset="1" stop-color="#F80014"/>
</linearGradient>
<linearGradient id="paint1_linear_1_6" x1="155.826" y1="128.446" x2="155.826" y2="173.5" gradientUnits="userSpaceOnUse">
<stop stop-color="#EF0313"/>
<stop offset="1" stop-color="#F80014"/>
</linearGradient>
<linearGradient id="paint2_linear_1_6" x1="156.459" y1="17.8078" x2="156.459" y2="121.927" gradientUnits="userSpaceOnUse">
<stop stop-color="#EF0313"/>
<stop offset="1" stop-color="#F80014"/>
</linearGradient>
</defs>
</svg>
